<svg width="1500" height="1468" viewBox="0 0 1500 1468" fill="none" xmlns="http://www.w3.org/2000/svg">
<path d="M444.135 274.96C435.509 270.307 364.042 227.48 362.535 226.067C361.335 224.92 365.389 221.973 379.202 213.947C398.775 202.573 420.869 189.813 580.135 97.8933C595.535 89.0133 626.735 71.04 649.469 57.9467C672.202 44.8667 692.909 32.84 695.469 31.2267C698.029 29.6 709.442 23.0267 720.802 16.6133C732.162 10.1867 743.295 3.82665 745.535 2.46665L749.602 0L772.869 13.04C785.669 20.2267 826.442 43.3867 863.469 64.5067C900.495 85.64 948.202 112.84 969.469 124.933C990.735 137.027 1020.44 153.987 1035.47 162.613C1050.51 171.24 1071.8 183.347 1082.8 189.533C1110.06 204.827 1138.6 221.293 1139.71 222.36C1140.2 222.84 1129.11 228.587 1115.04 235.133C1100.98 241.68 1078.67 252.08 1065.47 258.227C1052.27 264.387 1040.58 269.48 1039.47 269.533C1038.36 269.587 1030.87 265.747 1022.8 261C1014.74 256.24 988.642 241.067 964.802 227.267C940.962 213.467 914.269 197.96 905.469 192.787C890.602 184.053 867.189 170.467 783.362 121.92L750.589 102.947L742.029 107.933C724.522 118.147 667.189 151.427 638.802 167.853C603.242 188.44 550.775 218.893 493.295 252.32C469.735 266.013 449.935 277.2 449.295 277.173C448.655 277.147 446.335 276.147 444.135 274.96Z" fill="#4A4A4A"/>
<path d="M1042.93 487C1040.08 485.133 1023.59 475.493 1006.27 465.56C988.961 455.627 964.907 441.693 952.801 434.587C940.694 427.48 927.201 419.667 922.801 417.227C918.401 414.773 906.401 407.84 896.134 401.813C885.867 395.773 865.467 383.96 850.801 375.547C836.134 367.133 807.387 350.573 786.921 338.747C766.454 326.907 749.534 317.227 749.347 317.227C748.961 317.227 707.254 341.133 638.801 380.587C544.694 434.813 540.561 437.107 539.001 435.747C537.681 434.587 481.374 403.48 459.134 391.613C454.921 389.36 451.467 387.08 451.467 386.547C451.467 385.387 449.001 386.84 540.801 333.893C544.827 331.56 564.027 320.467 583.467 309.227C602.907 297.987 634.401 279.827 653.467 268.867C672.534 257.907 694.441 245.187 702.134 240.613C721.054 229.373 749.601 213.227 750.547 213.227C751.321 213.227 781.547 230.507 845.467 267.507C864.534 278.547 898.734 298.333 921.467 311.493C944.201 324.653 971.494 340.413 982.134 346.52C992.774 352.613 1011.97 363.76 1024.8 371.267C1037.63 378.773 1056.84 389.88 1067.47 395.947C1097.68 413.2 1138.68 437.24 1139.79 438.347C1140.6 439.16 1069.59 480.88 1054.53 488.427C1049.19 491.107 1049.2 491.107 1042.93 487Z" fill="#4A4A4A"/>
<path d="M449.077 735.227L448.757 704.561L405.397 678.681C381.557 664.454 362.21 652.321 362.424 651.721C362.81 650.587 387.81 635.681 427.464 612.934C440.29 605.561 461.304 593.387 474.13 585.881C486.957 578.361 511.264 564.227 528.13 554.481C584.797 521.734 605.237 509.894 653.464 481.921C720.49 443.054 749.13 426.561 749.637 426.561C750.237 426.561 777.97 442.267 796.797 453.267C812.33 462.347 875.97 498.881 917.464 522.547C1015.01 578.187 1047.48 597.107 1047.44 598.307C1047.42 598.814 1040.68 603.094 1032.44 607.827C1024.2 612.547 1005.16 623.574 990.13 632.321C975.104 641.081 961.477 648.841 959.877 649.574C956.65 651.054 962.81 654.361 882.797 608.161C859.33 594.614 830.237 577.721 818.13 570.614C806.024 563.507 785.69 551.774 772.917 544.521L749.704 531.334L740.25 536.441C735.05 539.241 713.104 551.614 691.464 563.907C645.944 589.801 583.357 625.307 523.464 659.241C500.357 672.334 474.57 686.987 466.13 691.827L450.797 700.614L450.09 733.254L449.397 765.894L449.077 735.227Z" fill="#4A4A4A"/>
<path d="M1022.8 900.281C1013.26 894.747 988.662 880.507 968.129 868.627C947.596 856.734 912.942 836.681 891.129 824.054C869.316 811.427 845.316 797.614 837.796 793.347C830.276 789.094 807.369 775.947 786.889 764.121L749.662 742.627L745.556 745.121C743.302 746.494 727.662 755.561 710.796 765.267C693.929 774.974 662.436 793.107 640.796 805.574C619.156 818.041 588.862 835.454 573.462 844.267C558.062 853.081 544.516 860.881 543.369 861.601C541.849 862.547 539.849 862.001 536.036 859.614C531.329 856.667 519.089 849.747 468.796 821.601C460.356 816.881 452.982 812.561 452.409 812.001C451.329 810.961 467.596 801.187 531.462 764.494C566.809 744.187 608.729 720.001 673.462 682.547C733.729 647.681 748.142 639.507 749.529 639.481C750.876 639.454 761.369 645.401 845.462 693.894C941.356 749.201 958.342 758.987 993.462 779.214C1014 791.041 1049.09 811.267 1071.46 824.161C1093.84 837.041 1118.26 851.107 1125.76 855.401C1133.25 859.707 1139.4 863.574 1139.42 864.001C1139.45 864.427 1132.12 868.121 1123.13 872.187C1114.14 876.267 1091.89 886.574 1073.66 895.081C1055.44 903.601 1040.44 910.507 1040.33 910.441C1040.22 910.387 1032.33 905.801 1022.8 900.281Z" fill="#4A4A4A"/>
<path d="M935.71 1275L936.137 1269.89L945.884 1268.92C958.537 1267.65 966.577 1264.09 969.71 1258.35C971.99 1254.15 972.137 1248.12 972.137 1154.56C972.137 1062.11 971.977 1054.93 969.777 1050.92C966.697 1045.27 961.804 1042.89 949.537 1041.07L939.47 1039.57V1034.4V1029.23H1005.32C1041.55 1029.23 1077.4 1029.85 1084.99 1030.63C1126.44 1034.81 1152.56 1045.04 1172.06 1064.72C1192.83 1085.68 1202.8 1112.08 1202.71 1145.89C1202.62 1182.79 1191.91 1211.2 1169.47 1234.04C1151.67 1252.16 1128.66 1265.13 1102.43 1271.83C1076.79 1278.36 1069.07 1278.95 1000.38 1279.55L935.297 1280.11L935.71 1275ZM1084.14 1262.65C1115.47 1254.48 1137.03 1236.57 1150.87 1207.23C1160.8 1186.15 1164.62 1162.43 1162.07 1137.36C1157.02 1087.33 1127.67 1054.84 1078.11 1044.39C1062.59 1041.11 1032.51 1041.07 1021.82 1044.31C1008.55 1048.33 1009.52 1040.88 1009.07 1141.04C1008.64 1231.16 1009.15 1242.51 1013.98 1251.89C1016.84 1257.45 1025.96 1263.45 1034.19 1265.2C1043.9 1267.24 1072.02 1265.81 1084.14 1262.65Z" fill="#4A4A4A"/>
<path d="M0.796875 1345.89V1333.23H749.464H1498.13V1345.89V1358.56H749.464H0.796875V1345.89Z" fill="#4A4A4A"/>
<path d="M742.439 1282.47C705.746 1278.92 694.226 1268.79 656.866 1207.23C649.306 1194.76 641.546 1182.85 639.626 1180.77C632.973 1173.56 626.839 1171.41 611.133 1170.81L596.799 1170.27V1207.68C596.799 1250.68 597.599 1256.64 604.133 1262.37C608.386 1266.12 618.053 1269.23 625.426 1269.23C631.146 1269.23 632.799 1270.6 632.799 1275.37V1279.89H579.466H526.133V1275.25C526.133 1270.16 526.199 1270.13 538.799 1268.52C548.773 1267.25 556.226 1263.51 559.039 1258.35C561.306 1254.17 561.493 1247.79 561.853 1157.23C562.133 1087.29 561.826 1059.01 560.706 1054.99C558.119 1045.61 552.093 1042.05 536 1040.4L527.466 1039.52V1034.37V1029.23H585.84C617.933 1029.23 649.293 1029.84 655.506 1030.59C677.386 1033.23 692.479 1039.49 703.519 1050.52C720.719 1067.67 724.493 1100.95 711.879 1124.12C705.759 1135.36 691.639 1147.61 676.759 1154.57C673.119 1156.28 670.146 1158.33 670.146 1159.12C670.173 1161.51 694.226 1199.76 708.826 1220.65C730.906 1252.25 748.333 1270.12 759.466 1272.56C762.519 1273.23 763.466 1274.17 763.466 1276.56C763.466 1284.43 763.293 1284.48 742.439 1282.47ZM637.173 1156.6C649.066 1154.08 658.266 1148.92 666.053 1140.39C677.573 1127.79 681.546 1115.2 680.466 1094.64C679.613 1078.25 676.146 1068.99 667.266 1059.27C655.559 1046.45 635.719 1039.73 615.639 1041.8C604.906 1042.89 600.159 1045.33 598.279 1050.72C597.293 1053.53 596.799 1072.28 596.799 1106.76V1158.56L612.466 1158.53C621.079 1158.52 632.2 1157.65 637.173 1156.6Z" fill="#4A4A4A"/>
<path d="M551.184 1464.51C538.939 1463.33 535.095 1459.94 522.627 1439.4C520.104 1435.24 517.515 1431.27 516.874 1430.57C514.654 1428.17 512.607 1427.45 507.365 1427.25L502.582 1427.07V1439.55C502.582 1453.9 502.849 1455.89 505.029 1457.8C506.449 1459.05 509.675 1460.09 512.135 1460.09C514.044 1460.09 514.596 1460.55 514.596 1462.14V1463.65H496.798H479V1462.1C479 1460.4 479.022 1460.39 483.227 1459.85C486.555 1459.43 489.042 1458.18 489.981 1456.46C490.738 1455.07 490.8 1452.94 490.92 1422.71C491.014 1399.38 490.911 1389.94 490.537 1388.6C489.674 1385.47 487.663 1384.28 482.293 1383.73L479.445 1383.43V1381.72V1380H498.925C509.635 1380 520.1 1380.2 522.173 1380.45C529.475 1381.33 534.512 1383.43 538.196 1387.11C543.936 1392.83 545.195 1403.93 540.986 1411.67C538.943 1415.42 534.231 1419.51 529.266 1421.83C528.051 1422.4 527.059 1423.08 527.059 1423.35C527.068 1424.14 535.095 1436.91 539.967 1443.88C547.335 1454.43 553.151 1460.39 556.866 1461.2C557.885 1461.43 558.201 1461.74 558.201 1462.54C558.201 1465.16 558.143 1465.18 551.184 1464.51ZM516.055 1422.51C520.024 1421.66 523.094 1419.94 525.693 1417.1C529.537 1412.89 530.863 1408.69 530.503 1401.83C530.218 1396.36 529.061 1393.27 526.098 1390.02C522.191 1385.75 515.57 1383.51 508.869 1384.2C505.288 1384.56 503.704 1385.37 503.076 1387.17C502.747 1388.11 502.582 1394.37 502.582 1405.87V1423.16L507.81 1423.15C510.685 1423.15 514.396 1422.86 516.055 1422.51Z" fill="#4A4A4A"/>
<path d="M1127.47 750.44C1121.24 746.707 1105.63 737.627 1092.8 730.267C1079.98 722.907 1054.76 708.333 1036.8 697.893C1018.83 687.44 993.482 672.733 980.469 665.213L956.789 651.533L974.469 641.333C984.189 635.707 1004.59 623.947 1019.79 615.173C1036 605.827 1047.22 598.573 1046.87 597.64C1046.55 596.773 1046.84 595.88 1047.52 595.64C1048.24 595.4 1048.79 573.733 1048.83 543.107L1048.92 491L1053.86 488.68C1056.58 487.4 1077.23 475.787 1099.76 462.88C1135.22 442.547 1140.5 439.12 1139.1 437.307C1137.67 435.48 1137.75 435.44 1139.8 437.053C1141.96 438.747 1142.14 443.187 1142.14 495.84C1142.14 584.613 1140.46 757.227 1139.59 757.227C1139.15 757.227 1133.7 754.173 1127.47 750.44Z" fill="#808080"/>
<path d="M358.133 810.573C358.133 653.96 358.159 651.973 360.773 650.573C362.839 649.467 363.253 649.56 362.706 650.973C362.239 652.213 375.666 660.933 405.386 678.667L448.759 704.56L448.786 723.347C448.786 733.68 449.199 757.587 449.679 776.467L450.573 810.813L455.346 813.813C457.986 815.467 470.639 822.693 483.466 829.867C496.293 837.04 514.746 847.44 524.453 852.973L542.106 863.027L537.119 865.907C507.306 883.107 452.119 914.88 424.799 930.573C406.106 941.307 383.453 954.373 374.466 959.613L358.133 969.147V810.573Z" fill="#808080"/>
<path d="M358.133 497.454C358.133 472.641 358.533 400.934 359.013 338.107C359.826 234.014 360.093 224.041 362.013 225.707C364.679 228.014 439.679 272.734 445.679 275.601L450.133 277.721V331.547C450.133 366.681 450.586 385.107 451.453 384.574C452.173 384.121 452.453 384.561 452.08 385.547C451.466 387.134 493.386 411.174 530.479 430.521C536.399 433.614 539.346 435.921 539.066 437.227C538.84 438.334 537.933 439.081 537.053 438.894C536.186 438.707 535.466 439.201 535.466 439.974C535.466 440.747 534.866 441.014 534.133 440.561C533.399 440.107 532.799 440.321 532.799 441.041C532.799 441.747 521.546 448.787 507.799 456.681C494.053 464.561 470.199 478.294 454.799 487.187C439.399 496.081 421.106 506.587 414.133 510.547C407.159 514.494 391.999 523.321 380.426 530.147C368.866 536.974 359.119 542.561 358.759 542.561C358.413 542.561 358.133 522.254 358.133 497.454Z" fill="#808080"/>
<path d="M1242.13 1275.25C1242.13 1270.12 1241.29 1270.52 1256.95 1268.19C1270 1266.23 1275.28 1263.27 1278.64 1255.99C1281.41 1250.01 1281.48 1248.24 1281.87 1162.01C1282.11 1110.96 1281.73 1069.68 1280.99 1063.49C1279.01 1047.16 1275 1043.33 1257.21 1040.76L1247.47 1039.36V1034.29V1029.23H1336.07H1424.68L1425.33 1033.56C1427.03 1044.95 1428.84 1084.39 1427.71 1085.52C1427.03 1086.2 1424.53 1086.56 1422.17 1086.32C1418.11 1085.92 1417.69 1085.37 1414.89 1076.56C1411.19 1064.96 1406.04 1054.8 1401.92 1050.96C1394.51 1044.05 1390.45 1043.35 1355.25 1042.81C1323.28 1042.33 1322.29 1042.4 1319.57 1045.12C1316.81 1047.88 1316.77 1048.71 1317.12 1095.57L1317.47 1143.23H1345.47C1385.55 1143.23 1389.75 1141.49 1394.92 1122.89L1397.24 1114.56H1402.35H1407.47V1151.89V1189.23H1402.2C1397.16 1189.23 1396.88 1189 1396 1184.23C1393.19 1168.95 1387.97 1162.08 1377.59 1159.92C1373.69 1159.11 1359.31 1158.65 1344.12 1158.87L1317.47 1159.23L1317.11 1199.15C1316.65 1251.57 1317.75 1257.23 1329.55 1263.23C1334.12 1265.55 1338 1265.95 1359.77 1266.35C1408.16 1267.24 1416.64 1262.8 1432.37 1228.4C1437.11 1218.03 1437.75 1217.25 1441.47 1217.25C1443.67 1217.27 1446.12 1217.71 1446.92 1218.25C1448.27 1219.15 1441.32 1257.77 1436.81 1274.51L1435.36 1279.89H1338.75H1242.13V1275.25Z" fill="#4A4A4A"/>
<path d="M318.133 1275.37C318.133 1270.29 319.706 1269.24 327.239 1269.21C332.773 1269.19 344.053 1266.43 348.653 1263.97C350.333 1263.07 353.013 1259.53 354.586 1256.11C357.439 1249.95 357.466 1249.05 357.893 1149.37C358.133 1094.08 357.959 1047.37 357.506 1045.56L356.679 1042.28L330.399 1042.92C315.959 1043.27 301.906 1044.24 299.173 1045.11C288.266 1048.53 281.653 1058.2 275.399 1079.85L272.306 1090.56H267.213C262.266 1090.56 262.133 1090.43 262.133 1085.76C262.133 1083.11 262.746 1072.16 263.493 1061.43C264.226 1050.68 265.186 1036.95 265.613 1030.89L266.373 1019.89H270.173C272.453 1019.89 274.719 1020.95 275.813 1022.52C280.586 1029.32 278.893 1029.21 374.506 1029.21C469.466 1029.23 468.866 1029.27 474.666 1022.75C476.106 1021.13 478.813 1019.89 480.893 1019.89C484.533 1019.89 484.56 1019.96 485.32 1030.89C488.053 1070.17 489.026 1088.11 488.453 1088.68C488.093 1089.04 485.706 1089.68 483.16 1090.09L478.533 1090.84L476.253 1081.71C471.52 1062.69 464.026 1050.55 454.279 1046.11C448.813 1043.61 445.079 1043.25 420.466 1042.8L392.799 1042.29V1143.03C392.799 1212.88 393.266 1245.92 394.306 1250.79C396.733 1262.11 404.133 1267.04 421.186 1268.72C433.813 1269.96 434.133 1270.12 434.133 1275.25V1279.89H376.133H318.133V1275.37Z" fill="#4A4A4A"/>
<path d="M787.469 1275.37C787.469 1270.28 789.042 1269.23 796.669 1269.23C803.962 1269.23 814.549 1265.72 817.749 1262.25C823.495 1256.04 823.629 1253.35 823.202 1151.89C822.829 1061.36 822.642 1054.95 820.375 1050.77C817.242 1045.04 809.389 1041.55 797.002 1040.4L787.469 1039.51V1034.37V1029.23H840.802H894.135V1034.4V1039.59L885.135 1040.52C873.122 1041.77 865.615 1045.19 862.562 1050.77C860.282 1054.97 860.135 1061 860.135 1154.56C860.135 1251.92 860.189 1253.99 862.842 1258.56C866.309 1264.56 872.589 1267.59 884.189 1268.87L893.469 1269.89L893.882 1274.89L894.295 1279.89H840.882H787.469V1275.37Z" fill="#4A4A4A"/>
<path d="M935.469 1466.72C921.949 1463.77 910.562 1455.05 904.695 1443.12C902.002 1437.65 901.469 1434.56 901.469 1424.56C901.469 1414.41 902.002 1411.41 904.935 1405.16C912.642 1388.75 924.189 1381.13 942.869 1380.15C959.229 1379.29 967.175 1382.13 977.695 1392.59C987.909 1402.75 990.789 1410.75 989.842 1426.45C988.829 1443.37 980.122 1456.12 964.802 1463.09C956.842 1466.72 943.202 1468.4 935.469 1466.72ZM962.735 1458.96C966.349 1456.47 969.455 1452.59 972.135 1447.23C975.815 1439.87 976.135 1438.12 976.135 1425.23C976.135 1413.44 975.655 1410.17 973.069 1404.56C966.922 1391.21 956.642 1383.89 944.055 1383.89C924.669 1383.89 913.055 1399.8 914.429 1424.44C915.162 1437.77 918.829 1446.73 926.695 1454.45C929.842 1457.55 934.762 1460.95 937.615 1462C945.322 1464.87 956.069 1463.57 962.735 1458.96Z" fill="#4A4A4A"/>
<path d="M1121.47 319.04C1111.2 312.893 1088.55 299.667 1071.13 289.653C1053.72 279.64 1039.48 271.093 1039.51 270.667C1039.52 270.24 1048.97 265.613 1060.51 260.387C1108.92 238.413 1140.47 223.147 1139.79 222.027C1139.39 221.36 1139.75 221.24 1140.6 221.76C1142.35 222.853 1142.88 328.64 1141.13 329.653C1140.59 329.96 1131.73 325.187 1121.47 319.04Z" fill="#808080"/>
<path d="M1128.13 961.774C1121.53 957.8 1099.17 944.827 1078.45 932.96C1057.73 921.094 1041.24 910.947 1041.79 910.4C1042.73 909.494 1081.55 891.254 1121.47 872.96C1131 868.587 1139 864.454 1139.25 863.774C1139.49 863.094 1140.24 862.88 1140.92 863.294C1142.37 864.2 1142.6 969.267 1141.13 969.12C1140.59 969.067 1134.73 965.76 1128.13 961.774Z" fill="#808080"/>
<path d="M1063.97 1444.89C1053.61 1432.97 1040.43 1417.68 1034.67 1410.89C1028.91 1404.11 1023.67 1398.56 1023.03 1398.56C1022.39 1398.56 1022.08 1411.4 1022.33 1427.09C1022.85 1458.55 1023.24 1460.05 1031.53 1461.71C1033.69 1462.13 1035.47 1463.11 1035.47 1463.85C1035.47 1464.72 1029.72 1465.23 1020.13 1465.23C1005.37 1465.23 1000.37 1463.75 1008.84 1461.88C1016.69 1460.16 1017.41 1457.2 1017.93 1424.88C1018.27 1403.8 1017.93 1394.64 1016.75 1391.76C1015.11 1387.81 1009.52 1383.89 1005.53 1383.89C1002.37 1383.89 1003.08 1381.6 1006.47 1380.87C1008.12 1380.52 1011.57 1380.39 1014.13 1380.59C1016.69 1380.79 1019.8 1381.01 1021.04 1381.08C1022.27 1381.16 1034.81 1394.28 1048.92 1410.23C1063.04 1426.17 1075.97 1440.71 1077.69 1442.53L1080.8 1445.83V1418.13C1080.8 1390.51 1080.79 1390.43 1077.53 1387.16C1075.71 1385.35 1072.69 1383.89 1070.75 1383.89C1068.59 1383.89 1067.45 1383.27 1067.79 1382.27C1068.16 1381.15 1072.43 1380.61 1081.56 1380.53C1088.84 1380.48 1095.55 1380.67 1096.47 1380.97C1099.13 1381.84 1098.39 1383.89 1095.4 1383.89C1093.91 1383.89 1091.2 1385.36 1089.4 1387.16L1086.13 1390.44V1428.49C1086.13 1458.09 1085.76 1466.56 1084.47 1466.56C1083.55 1466.56 1074.32 1456.81 1063.97 1444.89Z" fill="#4A4A4A"/>
<path d="M293.449 1464.68C292.729 1463.65 279.529 1448.21 264.129 1430.37L236.129 1397.95L235.729 1423.92C235.236 1455.49 235.996 1459.15 243.502 1461.4C246.409 1462.27 248.796 1463.49 248.796 1464.11C248.796 1464.72 241.889 1465.23 233.462 1465.23C217.822 1465.23 214.462 1463.97 222.756 1461.24C229.342 1459.07 230.116 1454.88 230.116 1421.07C230.129 1394.07 229.956 1392.04 227.409 1388.79C225.836 1386.79 222.702 1384.96 220.009 1384.45C211.556 1382.87 215.636 1380.53 226.236 1380.89C235.569 1381.21 236.356 1381.48 240.129 1385.67C242.329 1388.11 251.742 1398.75 261.049 1409.33C270.342 1419.91 281.609 1432.45 286.062 1437.23L294.156 1445.89L293.809 1418.56C293.396 1387.41 292.942 1385.71 284.756 1384.4C281.849 1383.93 279.462 1383.03 279.462 1382.39C279.462 1380.92 278.862 1380.97 295.796 1380.75C306.476 1380.61 310.129 1380.99 310.129 1382.23C310.129 1383.15 308.996 1383.89 307.609 1383.89C306.222 1383.89 303.676 1385.04 301.942 1386.44L298.796 1388.99L298.382 1427.77C297.982 1466.61 297.476 1470.37 293.449 1464.68Z" fill="#4A4A4A"/>
<path d="M0.0666707 1345.89L0.133341 1332.56H749.8H1499.47L750.173 1332.89L0.893351 1333.23L0.440002 1346.23L0 1359.23L0.0666707 1345.89Z" fill="#B3B3B3"/>
<path d="M749.08 1358.89L1498.04 1358.56L1498.47 1345.56L1498.91 1332.56L1499.19 1346.23L1499.47 1359.89L749.799 1359.56L0.132812 1359.23L749.08 1358.89Z" fill="#808080"/>
<path d="M598.8 1465.65C587.227 1463.05 581.04 1458.75 576.427 1450.05C573.773 1445.04 573.453 1442.05 572.827 1416.12C572.187 1389.95 571.92 1387.52 569.547 1385.79C568.12 1384.75 565.52 1383.89 563.773 1383.89C561.987 1383.89 560.8 1383.23 561.08 1382.39C561.587 1380.87 583.853 1379.83 591.613 1380.96C596.28 1381.65 596.76 1383.89 592.227 1383.89C585.013 1383.89 584.573 1385.85 585.04 1415.08C585.467 1441.8 585.48 1441.92 589.267 1448.35C595.827 1459.52 610.147 1463.2 622.227 1456.8C633.427 1450.88 637.72 1435.65 636.373 1406.56C635.64 1390.71 635.44 1389.75 632.133 1386.89C630.213 1385.24 627.133 1383.89 625.28 1383.89C623.347 1383.89 622.133 1383.24 622.413 1382.37C623.173 1380.11 652.8 1379.97 652.8 1382.23C652.8 1383.15 651.667 1383.89 650.28 1383.89C648.893 1383.89 646.347 1385.04 644.627 1386.43C641.613 1388.88 641.467 1389.83 640.64 1414.09C639.787 1439.16 639.107 1443.56 634.92 1451.67C629.627 1461.91 612.187 1468.65 598.8 1465.65Z" fill="#4A4A4A"/>
<path d="M1419.47 1466.07C1387.28 1459.05 1373.35 1425.56 1391.59 1399.04C1402.1 1383.79 1428.03 1376.35 1453.16 1381.39C1460.56 1382.88 1460.63 1382.93 1461.47 1388.39C1461.94 1391.41 1462.64 1395.84 1463.04 1398.23C1464.03 1404.16 1461.5 1403.8 1458.3 1397.56C1453.02 1387.28 1446.75 1383.88 1433.04 1383.91C1417.23 1383.93 1404.96 1392.32 1400.18 1406.39C1397.58 1414 1397.54 1431.2 1400.11 1438.47C1401.19 1441.53 1403.74 1446.37 1405.78 1449.21C1415.52 1462.84 1436.58 1467.84 1448.98 1459.48C1453.18 1456.65 1461.27 1447.16 1462.42 1443.73C1462.71 1442.83 1463.66 1442.52 1464.51 1443.05C1466.4 1444.21 1460.51 1461.04 1457.39 1463.4C1455.18 1465.07 1437.83 1467.96 1431.08 1467.79C1428.72 1467.72 1423.51 1466.95 1419.47 1466.07Z" fill="#4A4A4A"/>
<path d="M702.533 1465.88C682.08 1461.44 669.053 1446.89 667.76 1427.07C666.533 1408.24 674.773 1394.35 692.347 1385.65C702.573 1380.6 702.787 1380.56 718.733 1380.56C727.573 1380.56 736.987 1381.03 739.653 1381.59C744.227 1382.56 744.56 1382.99 745.373 1388.92C745.84 1392.39 746.56 1396.88 746.96 1398.89C747.867 1403.51 744.12 1404.09 742.72 1399.56C739.64 1389.65 730.547 1383.89 718.013 1383.89C706.88 1383.89 700.4 1386.07 693.573 1392.08C685.053 1399.57 681.507 1408.53 681.48 1422.59C681.467 1432.8 681.92 1434.88 685.92 1443C698.16 1467.85 729.747 1470.95 742.853 1448.59C745 1444.92 746.987 1442.97 748.12 1443.4C749.573 1443.96 749.28 1445.88 746.627 1453C744.8 1457.89 742.427 1462.57 741.347 1463.4C739.187 1465.07 721.867 1467.96 715.08 1467.79C712.72 1467.73 707.08 1466.87 702.533 1465.88Z" fill="#4A4A4A"/>
<path d="M780.8 1464.04C780.8 1462.6 784.093 1461.23 787.533 1461.23C792.266 1461.23 792.8 1457.07 792.8 1419.83V1383.59L782.466 1384.51C770.84 1385.56 768.32 1387.16 765.52 1395.31C762.266 1404.77 760.693 1402.49 761.64 1389.68C762.106 1383.2 762.626 1377.73 762.786 1377.53C762.946 1377.33 764.72 1378.04 766.733 1379.08C771.96 1381.79 828.64 1381.47 831.96 1378.71C833.186 1377.68 834.533 1377.19 834.946 1377.6C835.36 1378.01 836.04 1383.2 836.44 1389.12C837.066 1398.19 836.866 1399.89 835.16 1399.89C833.986 1399.89 832.8 1398.25 832.36 1396.04C831.933 1393.92 830.213 1390.63 828.533 1388.73C825.813 1385.67 824.32 1385.23 815.466 1384.92L805.466 1384.56L805.106 1420.43C804.72 1460.32 804.68 1460.16 813.56 1461.83C816.066 1462.29 818.133 1463.25 818.133 1463.96C818.133 1464.71 810.426 1465.23 799.466 1465.23C789.2 1465.23 780.8 1464.69 780.8 1464.04Z" fill="#4A4A4A"/>
<path d="M336.388 1466.07C332.855 1465.08 329.321 1463.61 328.535 1462.83C327.748 1462.04 326.375 1457.15 325.481 1451.97C324.161 1444.29 324.188 1442.56 325.601 1442.56C326.561 1442.56 328.468 1445.11 329.855 1448.23C336.761 1463.85 355.295 1468.92 363.108 1457.32C370.415 1446.48 365.468 1437.43 346.481 1426.85C329.535 1417.44 324.228 1409.28 327.375 1397.57C330.841 1384.69 340.641 1379.16 358.161 1380.17C364.068 1380.51 369.495 1381.39 370.215 1382.11C371.948 1383.84 373.415 1396.39 372.241 1399.44C371.521 1401.29 370.548 1400.23 367.708 1394.52C365.015 1389.08 362.815 1386.6 359.055 1384.76C349.041 1379.84 338.388 1385.31 337.215 1395.93C336.241 1404.81 340.121 1409.57 354.775 1417.52C372.708 1427.23 376.801 1432.01 376.801 1443.23C376.801 1452.72 372.228 1459.51 362.508 1464.43C356.495 1467.45 344.108 1468.24 336.388 1466.07Z" fill="#4A4A4A"/>
<path d="M407.47 1463.96C407.47 1463.25 409.603 1462.28 412.203 1461.79C420.963 1460.15 420.803 1460.89 420.803 1420.41V1383.79L410.47 1384.67C398.576 1385.69 395.403 1387.73 392.95 1395.95C390.35 1404.6 388.296 1402.52 389.27 1392.23C389.736 1387.28 390.123 1381.87 390.123 1380.19C390.136 1377.29 390.296 1377.24 393.923 1379.12C399.19 1381.84 456.576 1381.52 459.91 1378.75C462.696 1376.43 463.016 1377.32 463.95 1390.23C464.483 1397.57 464.243 1399.89 462.936 1399.89C461.99 1399.89 460.51 1397.49 459.63 1394.56C458.75 1391.61 456.683 1388.33 455.043 1387.27C452.016 1385.28 436.59 1383.55 433.283 1384.81C431.816 1385.37 431.496 1391.95 431.603 1419.04C431.67 1437.48 432.136 1454.05 432.643 1455.89C433.31 1458.4 435.096 1459.72 439.83 1461.23C443.296 1462.33 446.123 1463.68 446.123 1464.23C446.136 1464.77 437.443 1465.23 426.803 1465.23C415.416 1465.23 407.47 1464.71 407.47 1463.96Z" fill="#4A4A4A"/>
<path d="M1306.13 1464.08C1306.13 1463.43 1308.03 1462.52 1310.33 1462.05C1318.31 1460.45 1318.13 1461.29 1318.13 1423.84C1318.13 1404.92 1317.77 1388.49 1317.32 1387.33C1316.87 1386.13 1314.23 1384.84 1311.27 1384.37C1308.39 1383.91 1306.24 1382.89 1306.51 1382.09C1307.23 1379.96 1341.11 1380.13 1341.81 1382.27C1342.13 1383.24 1341.08 1383.89 1339.21 1383.89C1337.48 1383.89 1334.72 1384.83 1333.09 1385.97C1330.16 1388.03 1330.13 1388.43 1330.13 1421.97C1330.13 1463.4 1329.43 1461.76 1346.79 1461.03C1359.41 1460.49 1361.63 1459.2 1366.27 1449.61C1370.33 1441.2 1371.87 1444.24 1369.12 1455.28L1366.8 1464.56L1336.47 1464.92C1319.27 1465.12 1306.13 1464.76 1306.13 1464.08Z" fill="#4A4A4A"/>
<path d="M1230.13 1464.07C1230.13 1463.4 1232.23 1462.47 1234.79 1461.99C1237.35 1461.51 1240.04 1459.97 1240.79 1458.59C1241.59 1457.08 1242.13 1442.45 1242.13 1422.05C1242.13 1388.43 1242.11 1388.03 1239.17 1385.97C1237.55 1384.83 1234.79 1383.89 1233.05 1383.89C1231.19 1383.89 1230.13 1383.24 1230.45 1382.28C1230.91 1380.89 1246.4 1380.36 1263.8 1381.12C1267.28 1381.28 1266.63 1383.89 1263.09 1383.89C1261.43 1383.89 1258.72 1384.83 1257.09 1385.97C1254.16 1388.03 1254.13 1388.4 1254.13 1422.56C1254.13 1463.08 1253.41 1461.23 1269.16 1461.23C1281 1461.23 1285.19 1459 1289.56 1450.37C1294.21 1441.19 1295.92 1443.61 1292.99 1455.23L1290.63 1464.56L1260.39 1464.92C1242.89 1465.12 1230.13 1464.76 1230.13 1464.07Z" fill="#4A4A4A"/>
<path d="M850.133 1463.96C850.133 1463.25 852.253 1462.28 854.84 1461.8C857.426 1461.32 860.12 1459.83 860.84 1458.49C861.573 1457.11 862.133 1441.55 862.133 1422.05C862.133 1388.43 862.106 1388.03 859.173 1385.97C857.546 1384.83 854.786 1383.89 853.053 1383.89C851.199 1383.89 850.133 1383.24 850.439 1382.29C851.213 1380 885.053 1379.97 885.813 1382.27C886.159 1383.31 884.933 1383.89 882.453 1383.89C874.399 1383.89 874.133 1385.15 874.133 1423.51C874.133 1461.16 873.933 1460.16 881.799 1461.84C891.079 1463.83 885.426 1465.23 868.133 1465.23C857.586 1465.23 850.133 1464.69 850.133 1463.96Z" fill="#4A4A4A"/>
</svg>
